<svg width="80" height="80" viewBox="0 0 80 80" fill="none" xmlns="http://www.w3.org/2000/svg">
<path d="M62.1569 44.5588C62.1569 59.3431 52.2353 71.3235 40 71.3235C27.7647 71.3235 17.8431 59.3431 17.8431 44.5588C17.8431 29.7745 27.7647 8.66666 40 8.66666C44.5882 8.66666 48.8529 11.6372 52.3922 16.1274C52.4706 16.2255 50.7941 18.1961 50.7941 18.1961L51.1569 19.7157L49.6569 19.4314L49.3922 20.0196L48.0784 19.9118L48.4902 21.4216L47.9706 21.902L48.3039 23.049L47.2843 22.8725L45.9804 24.9706C45.9804 24.9706 46.549 24.7647 47.2549 24.2157C47.4804 24.0392 47.9902 23.6274 47.9902 23.6274L49.3726 24.1176L48.9216 22.8725L49.3627 22.5196L49.4608 21.2059L50.6078 21.5294L50.9608 21.2451L52.4608 21.5686L52.3431 20.0882C52.3431 20.0882 54.1863 18.6176 54.2549 18.7353C59.0882 26.1471 62.1569 36.3333 62.1569 44.5588Z" fill="white"/>
<path d="M40 3.7451C59.9902 3.7451 76.2549 20.0098 76.2549 39.9902C76.2549 59.9706 59.9902 76.2549 40 76.2549C20.0098 76.2549 3.7451 59.9902 3.7451 40C3.7451 20.0098 20.0098 3.7451 40 3.7451ZM40 0C17.9118 0 0 17.9118 0 40C0 62.0882 17.9118 80 40 80C62.0882 80 80 62.0882 80 40C80 17.9118 62.0882 0 40 0Z" fill="white"/>
</svg>
