<svg width="81" height="80" viewBox="0 0 81 80" fill="none" xmlns="http://www.w3.org/2000/svg">
<path d="M26.2274 25.7451C14.9039 30.5098 7.47253 40.6274 7.47253 40.6274C7.53136 40.6961 12.4823 46.4804 17.7078 45.147C17.9823 45.0784 17.9823 45.8333 17.8353 46.0686C17.5118 46.5686 16.747 46.5784 16.1392 46.5784C12.9529 46.5784 9.58038 44.0098 7.86469 42.4902C10.2961 45.3823 16.8745 52.4902 25.4235 56.3431C31.7961 46.0196 27.2176 29.098 26.2274 25.7451ZM19.3059 41.598C17.7372 41.598 16.4627 40.3823 16.4627 38.8921C16.4627 37.4019 17.7372 36.1863 19.3059 36.1863C20.8745 36.1863 22.149 37.3921 22.149 38.8921C22.1588 40.3921 20.8843 41.598 19.3059 41.598Z" fill="white"/>
<path d="M62.9529 37.2941C60.7372 34.9804 57.5509 32 53.6882 29.402C52.9039 28.8726 52.5313 27.402 49.149 24.8824C43.8451 20.9216 43.5607 21.2941 38.649 21.0686C38.2862 21.049 36.9627 23.5098 36.6098 23.5098C33.4137 23.5098 30.3352 24.1863 27.4529 25.2647C28.4333 28.4216 33.3549 45.8235 26.6294 56.8529C29.198 57.8922 31.9137 58.6177 34.747 58.8431C35.3647 58.8922 35.9823 58.9216 36.6098 58.9216C37.5607 58.9216 38.5019 58.8627 39.4333 58.7549C40.9725 58.5686 42.4823 58.2353 43.9431 57.7941C52.8352 55.1078 60.1196 48.2549 63.8058 44.2451C63.8058 44.2451 70.3843 53.549 72.7666 52.4608C75.3549 51.2745 72.0019 45.6471 71.7078 39.9608C71.4235 34.5196 74.296 28.9902 72.5705 27.9118C70.2862 26.4902 62.9529 37.2941 62.9529 37.2941Z" fill="white"/>
<path d="M40.6 3.7451C60.5902 3.7451 76.8549 20.0098 76.8549 39.9902C76.8549 59.9706 60.5902 76.2549 40.6 76.2549C20.6098 76.2549 4.34507 59.9902 4.34507 40C4.34507 20.0098 20.6098 3.7451 40.6 3.7451ZM40.6 0C18.5117 0 0.599976 17.9118 0.599976 40C0.599976 62.0882 18.5117 80 40.6 80C62.6882 80 80.6 62.0882 80.6 40C80.6 17.9118 62.6882 0 40.6 0Z" fill="white"/>
</svg>
