<svg width="81" height="80" viewBox="0 0 81 80" fill="none" xmlns="http://www.w3.org/2000/svg">
<path d="M44.7686 26.7353C44.6215 26.4314 41.7588 20.3431 38.9255 16.598C39.5529 16.2157 39.9941 15.3922 39.9941 14.4314C39.9941 13.1079 39.1608 12.0294 38.1313 12.0294H24.8961C23.8666 12.0294 23.0431 13.1079 23.0431 14.4314C23.0431 15.3922 23.4745 16.2157 24.1117 16.598C21.2784 20.3431 18.4059 26.4314 18.2686 26.7353L18.0921 27.1078V27.5098V61.5686C18.0921 65.098 21.0627 67.9804 24.7098 67.9804H38.3372C41.9843 67.9804 44.9549 65.098 44.9549 61.5686V27.5098V27.098L44.7686 26.7353ZM31.3176 27.5098C26.6412 30.902 20.0333 27.5098 20.0333 27.5098C20.0333 27.5098 23.4745 20.1667 26.3863 16.8333H36.651C39.5627 20.1667 43.0039 27.5098 43.0039 27.5098C43.0039 27.5098 35.9843 24.1177 31.3176 27.5098Z" fill="white"/>
<path d="M45.749 46.4216L47.3961 67.4118H60.6804L62.3274 46.4216H45.749V46.4216ZM54.1608 52.3529C52.2098 53.6275 47.3764 52.3235 47.3764 52.3235L47.0039 47.5588H61.0627L60.6902 52.3824C60.6804 52.3824 56.1117 51.0686 54.1608 52.3529Z" fill="white"/>
<path d="M40.2 3.7451C60.1902 3.7451 76.4549 20.0098 76.4549 39.9902C76.4549 59.9706 60.1902 76.2549 40.2 76.2549C20.2098 76.2549 3.94508 59.9902 3.94508 40C3.94508 20.0098 20.2098 3.7451 40.2 3.7451ZM40.2 0C18.1117 0 0.199982 17.9118 0.199982 40C0.199982 62.0882 18.1117 80 40.2 80C62.2882 80 80.2 62.0882 80.2 40C80.2 17.9118 62.2882 0 40.2 0Z" fill="white"/>
</svg>
