<svg width="81" height="80" viewBox="0 0 81 80" fill="none" xmlns="http://www.w3.org/2000/svg">
<path fill-rule="evenodd" clip-rule="evenodd" d="M49.9863 7.84317C40.9569 7.28434 34.1431 12.304 33.0353 21.1961C32.1725 28.1079 30.0647 34.3138 25.6039 39.8432C22.9569 43.1275 21.3098 46.9804 20.4961 51.1373C18.349 61.9706 27.0745 72.2353 38.8294 72.1863C41.4176 72.3334 44.1823 71.5981 46.7706 70.1471C54.3294 65.9118 58.7706 57.049 57.4569 48.4706C56.6725 43.353 57.0843 38.4118 58.9667 33.5589C60.1208 30.5669 61.066 27.5025 62.0132 24.4313L62.0175 24.4174C62.1148 24.1018 62.2122 23.7862 62.3098 23.4706C64.3098 17 57.7608 8.32356 49.9863 7.84317ZM53.0667 18.1775C52.8181 17.8461 52.348 17.7789 52.0167 18.0275C51.6853 18.276 51.6181 18.7461 51.8667 19.0775C52.3046 19.6614 52.9228 20.7544 53.2884 22.0644C53.6534 23.3723 53.75 24.834 53.235 26.2073C52.6947 27.6482 51.7425 29.2919 50.7078 31.078L50.7077 31.0782C50.3865 31.6327 50.0573 32.2009 49.7301 32.781C48.3877 35.1607 47.0835 37.7356 46.8193 40.1133C46.6848 41.3233 46.8218 42.5714 47.0576 43.8133C47.226 44.7001 47.4528 45.62 47.6783 46.5347L47.6784 46.535C47.7663 46.8916 47.854 47.2474 47.938 47.6002C48.5491 50.1666 48.9927 52.6978 48.3117 55.1948C47.7851 57.1256 46.1749 59.004 44.2545 60.5996C42.3531 62.1795 40.2517 63.3968 38.912 64.0273C38.5372 64.2036 38.3764 64.6505 38.5528 65.0252C38.7291 65.4 39.1759 65.5609 39.5507 65.3845C40.9888 64.7078 43.2011 63.4251 45.2131 61.7533C47.2061 60.0974 49.109 57.9724 49.7589 55.5895C50.5484 52.6944 50.0117 49.8334 49.3972 47.2528C49.3067 46.8727 49.2151 46.5009 49.1251 46.1358L49.1248 46.1348C48.9033 45.2363 48.6916 44.3779 48.5313 43.5335C48.3076 42.3551 48.1995 41.2748 48.3101 40.2789C48.5361 38.2448 49.6829 35.9177 51.0366 33.518C51.3361 32.9869 51.6467 32.4512 51.9567 31.9164L51.9568 31.9162C53.007 30.1044 54.0508 28.3038 54.6395 26.7339C55.301 24.97 55.1525 23.1637 54.7332 21.6612C54.3144 20.1606 53.6091 18.9007 53.0667 18.1775Z" fill="white"/>
<path d="M40.8 3.7451C60.7902 3.7451 77.0549 20.0098 77.0549 39.9902C77.0549 59.9706 60.7902 76.2549 40.8 76.2549C20.8098 76.2549 4.54509 59.9902 4.54509 40C4.54509 20.0098 20.8098 3.7451 40.8 3.7451ZM40.8 0C18.7118 0 0.799988 17.9118 0.799988 40C0.799988 62.0882 18.7118 80 40.8 80C62.8882 80 80.8 62.0882 80.8 40C80.8 17.9118 62.8882 0 40.8 0Z" fill="white"/>
</svg>
