<svg width="81" height="80" viewBox="0 0 81 80" fill="none" xmlns="http://www.w3.org/2000/svg">
<path d="M57.2873 54.1304C53.73 51.4822 52.0304 45.4347 54.2537 42.7668C56.3387 40.2569 58.7794 40.9782 61.0324 42.5889C64.4316 45.0296 66.0917 51.3834 64.1055 54.0513C62.643 56.0178 59.8565 56.0474 57.2873 54.1304Z" fill="white"/>
<path d="M25.232 58.6166C22.811 55.8992 19.56 53.0632 22.2576 49.417C24.7972 45.998 28.3841 48.0138 30.9237 49.9704C33.8189 52.1937 36.6055 55.3953 33.9869 58.9921C31.4573 62.4704 28.1272 59.921 25.232 58.6166Z" fill="white"/>
<path d="M20.8347 28.6265C24.7478 31.581 26.3683 37.6581 24.0462 40.2075C21.8624 42.6186 19.4118 41.9269 17.228 40.2273C13.7201 37.5099 12.3565 31.1462 14.7181 28.745C16.8229 26.5909 19.0067 27.4605 20.8347 28.6265Z" fill="white"/>
<path d="M38.4632 37.7174C41.8624 40.3162 43.4928 46.749 41.2695 49.2391C39.2735 51.4822 36.9711 50.8399 34.8664 49.3972C31.2004 46.8873 29.5106 40.7609 31.6154 38.0336C33.1865 35.9783 36.0225 35.8597 38.4632 37.7174Z" fill="white"/>
<path d="M44.7181 37.8755C40.983 35.0889 39.5205 29.0909 41.8031 26.4032C43.7399 24.1107 45.983 24.6146 48.0877 26.0672C51.5758 28.4684 53.3051 34.7431 51.2399 37.3913C49.1845 40.0099 46.8328 39.1601 44.7181 37.8755Z" fill="white"/>
<path d="M59.56 36.1364C55.7655 33.3103 54.0758 27.1146 56.2102 24.4862C58.3347 21.8577 60.6766 22.7767 62.8802 24.417C66.5758 27.164 67.9197 32.9842 65.4987 35.6719C63.4829 37.9051 61.3387 37.3123 59.56 36.1364Z" fill="white"/>
<path d="M41.6351 61.1363C39.7082 59.4861 38.5916 57.4506 40.7853 54.9604C42.9592 52.4901 49.1153 52.579 52.475 55.168C54.6588 56.8478 56.0126 58.9031 53.9968 61.5118C51.8821 64.2391 45.4296 64.0909 41.6351 61.1363Z" fill="white"/>
<path d="M29.7873 18.5079C33.4829 21.4723 35.0837 27.4506 32.9395 29.8518C30.7359 32.3123 28.3446 31.4427 26.1312 29.7036C22.7418 27.0356 21.1608 21.0968 23.3347 18.6759C25.5383 16.2154 27.8999 17.1443 29.7873 18.5079Z" fill="white"/>
<path d="M40.4 3.75494C60.3901 3.75494 76.6549 20.0198 76.6549 40.0099C76.6549 60 60.3901 76.2549 40.4 76.2549C20.4098 76.2549 4.1549 59.9901 4.1549 40C4.1549 20.0099 20.4098 3.75494 40.4 3.75494ZM40.4 0C18.3051 0 0.399963 17.9051 0.399963 40C0.399963 62.0949 18.3051 80 40.4 80C62.4948 80 80.4 62.0949 80.4 40C80.4 17.9051 62.4948 0 40.4 0Z" fill="white"/>
</svg>
