<svg width="81" height="80" viewBox="0 0 81 80" fill="none" xmlns="http://www.w3.org/2000/svg">
<path d="M69.4634 35.5903C66.8293 21.2976 53.3464 11.0049 37.1122 10.9561C30.2537 10.7122 23.8244 12.9073 18.3025 17.4732C15.1512 20.0781 13.1805 23.2976 12.5951 27.3561C11.8634 32.4585 12.9561 37.2683 14.5171 42.0488C15.0342 43.639 15.2781 45.0342 13.8537 46.4683C10.8488 49.4829 11.0049 50.6342 14.4878 53.1025C15.5903 53.8829 16.7903 54.5561 18.039 55.1025C20.839 56.3317 23.4634 57.7073 25.2195 60.2927C26.1073 61.6098 27.6488 61.8634 29.161 61.7756C31.2098 61.6586 32.7317 62.4195 34.0293 63.8927C35.0439 65.0439 36.1756 66.0976 37.3268 67.122C40.6244 70.0781 42.7805 69.7268 44.3415 65.7171C45.2195 63.4634 46.6049 62.3707 49.0146 62.1171C50.2732 61.9805 51.4927 61.5317 52.7415 61.2683C67.0537 58.2439 71.2976 45.522 69.4634 35.5903ZM21.4537 49.8927C20.3122 38.2439 21.4732 26.839 25.9512 15.8146C23.2683 27.0439 22.2829 38.4585 21.4537 49.8927ZM24.6439 49.6586C23.922 35.8439 30.761 24.5561 38.4098 13.5415C32.5171 25.1415 25.4829 36.3707 24.6439 49.6586ZM46.761 18.7903C39.5805 30.1561 32.5464 41.5903 26.3317 53.4439C30.8683 40.761 38.1073 29.4146 46.761 18.7903ZM27.7659 56.8195C37.4537 46.1951 47.6976 35.9903 56.5951 24.722C49.0732 37.0049 38.6927 47.122 27.7659 56.8195ZM30.7512 58.9073C42.2634 51.9707 54.4781 45.9317 64.0098 36.4585C55.4634 47.2 43.2878 53.2878 30.7512 58.9073ZM35.7464 60.2439C46.7415 57.2 57.0439 52.8195 66.4683 46.7707C57.7854 54.2439 47.5122 58.6829 35.7464 60.2439Z" fill="white"/>
<path d="M40.8 3.74634C60.7902 3.74634 77.0537 20.0098 77.0537 40C77.0537 59.9902 60.7902 76.2537 40.8 76.2537C20.8097 76.2537 4.54633 59.9902 4.54633 40C4.54633 20.0098 20.8097 3.74634 40.8 3.74634ZM40.8 0C18.7122 0 0.799988 17.9122 0.799988 40C0.799988 62.0878 18.7122 80 40.8 80C62.8878 80 80.8 62.0878 80.8 40C80.8 17.9122 62.8975 0 40.8 0Z" fill="white"/>
</svg>
