<svg width="81" height="80" viewBox="0 0 81 80" fill="none" xmlns="http://www.w3.org/2000/svg">
<path d="M55.3761 45.693C49.9806 43.4118 44.6645 40.972 39.3186 38.5916C33.8537 36.1617 28.3689 33.7912 22.9536 31.272C20.8509 30.2901 19.7599 30.7166 18.5896 32.7101C11.5874 44.6516 13.1743 55.7996 21.1286 66.7493C23.2809 69.7049 24.7884 70.5777 29.0235 70.4686C43.7718 70.0719 51.746 62.0481 57.1812 50.1066C58.2127 47.8254 57.6573 46.665 55.3761 45.693ZM51.4088 49.1644C51.3096 50.3248 51.2005 51.634 50.6055 52.5862C46.1125 59.7471 38.8524 63.0399 30.7989 66.184C31.2253 63.9921 32.604 63.4862 33.5759 62.6729C38.049 58.9139 42.1254 54.8773 44.4661 49.4619C44.8331 48.609 45.4579 47.8254 46.0927 47.1212C47.025 46.0997 48.1557 45.4054 49.6632 45.9608C51.1807 46.5361 51.5278 47.8155 51.4088 49.1644Z" fill="white"/>
<path d="M64.7587 26.4914C63.0528 23.2879 60.2062 21.2646 57.3796 19.2016C55.1281 17.5552 53.9082 15.5815 54.6025 12.7746C54.8802 11.634 55.386 10.4339 53.7594 9.74956C52.2816 9.12472 51.4683 9.91817 50.7046 10.9397C49.0681 13.1515 46.7671 13.5681 44.1785 13.1813C41.4014 12.7647 38.6342 12.2489 35.8472 11.9018C31.6716 11.3861 28.0515 12.5564 25.3538 15.76C23.6578 17.7734 22.2196 19.8959 21.565 22.5638C20.3848 27.3543 20.2261 27.3246 24.9273 29.4272C30.0451 31.7084 35.1628 33.9797 40.2806 36.2608C45.7356 38.6809 51.1807 41.1108 56.6357 43.5309C56.7448 43.5805 56.8638 43.6201 56.9729 43.6796C59.4425 45.207 61.2576 44.3243 63.0032 42.3704C67.0795 37.7882 67.7044 32.0258 64.7587 26.4914ZM62.9536 36.3104C62.8742 36.3799 62.5568 36.8659 62.18 36.9154C61.4758 36.9948 61.0989 36.3699 60.9501 35.8046C59.9384 31.9266 56.9729 29.7248 53.7297 27.7114C51.8551 26.551 50.903 24.8847 52.3213 22.9209C53.69 21.0364 55.5447 21.7208 57.2308 22.6234C61.9717 25.1525 65.0166 32.0952 62.9536 36.3104Z" fill="white"/>
<path d="M40.36 3.74907C60.3451 3.74907 76.6109 20.0149 76.6109 40C76.6109 59.9851 60.3451 76.2509 40.36 76.2509C20.3749 76.2509 4.10906 59.9851 4.10906 40C4.10906 20.0149 20.3749 3.74907 40.36 3.74907ZM40.36 0C18.2722 0 0.359985 17.9122 0.359985 40C0.359985 62.0878 18.2722 80 40.36 80C62.4478 80 80.36 62.0878 80.36 40C80.36 17.9122 62.4478 0 40.36 0Z" fill="white"/>
</svg>
