<svg width="81" height="80" viewBox="0 0 81 80" fill="none" xmlns="http://www.w3.org/2000/svg">
<path d="M38.8992 57.0593C40.1489 54.3714 41.2498 51.634 42.1524 48.8272C42.8367 49.5214 43.8881 49.9281 45.227 49.8983C46.6255 49.8686 47.8553 49.3826 49.0356 48.6586C54.2823 45.4748 56.4941 40.5455 56.9206 34.426C53.9848 37.937 49.8191 39.0875 45.8816 40.6447C45.1675 40.9224 44.5328 41.2993 43.9674 41.7654C44.3146 39.9603 44.5724 38.1155 44.741 36.2509C46.5164 37.7188 48.3215 37.6791 50.1167 36.1021C54.5997 32.1646 54.7286 20.0942 49.958 15.4723C49.6009 20.2529 46.8238 23.754 44.6022 27.5725C44.4435 26.3427 44.2253 25.1326 43.9476 23.9325C45.0783 22.8019 45.3956 20.8678 44.6419 18.3883C43.3624 14.1532 40.0894 10.8207 39.5042 5.6236C35.6659 11.396 35.4576 16.8807 38.2446 24.3689C35.9139 23.4763 35.1898 20.8777 32.9682 19.2115C32.1053 24.3094 32.1053 28.8916 34.2178 33.2755C35.8841 36.7369 38.2248 37.7783 40.4861 36.3799C40.1588 38.9983 39.6728 41.5175 39.0282 43.9573C38.8992 43.2928 38.681 42.5986 38.3438 41.8944C38.1653 41.5175 37.9868 41.1307 37.7289 40.8133C35.289 37.8973 32.6508 35.15 30.2605 31.3513C29.0009 36.608 28.5942 41.1803 30.4291 45.6534C31.6986 48.7379 34.4856 50.0372 36.9156 48.9958C37.1536 48.8966 37.3619 48.7677 37.5603 48.6288C36.7371 50.7017 35.3584 53.3994 33.8211 56.1865C33.474 54.6987 32.6905 53.3201 31.4408 52.0506C29.5464 50.1165 27.7909 48.0932 26.6404 45.5938C26.1643 44.5524 25.2617 43.5805 24.6369 45.4748C23.0599 50.2951 22.1574 55.145 24.7559 59.9554C26.1643 62.5539 27.7214 63.6648 29.6753 63.3771C28.743 64.9541 27.8801 66.3923 27.1958 67.5626C26.4817 68.7726 25.6783 70.4488 27.4041 71.4704C29.1993 72.5316 30.6275 71.4505 31.6094 69.933C32.3929 68.7329 33.1665 67.5229 33.9104 66.303C34.922 67.9296 36.8759 68.1478 40.2481 67.1361C47.8256 64.8549 52.0309 59.2016 54.9171 51.2174C50.9002 53.33 47.5975 55.0756 43.8782 55.7302C42.1623 56.0178 40.4762 56.4245 38.8992 57.0593ZM40.8234 25.0632C40.8829 26.0848 40.9225 27.1064 40.9325 28.1081C40.0398 27.0568 39.0579 26.0848 38.6116 24.7657C39.415 24.974 40.1588 25.0632 40.8234 25.0632Z" fill="white"/>
<path d="M40.02 3.74907C60.0051 3.74907 76.2709 20.0149 76.2709 40C76.2709 59.9851 60.0051 76.2509 40.02 76.2509C20.0349 76.2509 3.76909 59.9851 3.76909 40C3.76909 20.0149 20.0349 3.74907 40.02 3.74907ZM40.02 0C17.9322 0 0.0200195 17.9122 0.0200195 40C0.0200195 62.0878 17.9322 80 40.02 80C62.1078 80 80.02 62.0878 80.02 40C80.02 17.9122 62.1078 0 40.02 0Z" fill="white"/>
</svg>
